<?xml version="1.0" encoding="iso-8859-1"?>
<!-- Generator: Adobe Illustrator 16.0.0, SVG Export Plug-In . SVG Version: 6.00 Build 0)  -->
<!DOCTYPE svg PUBLIC "-//W3C//DTD SVG 1.1//EN" "http://www.w3.org/Graphics/SVG/1.1/DTD/svg11.dtd">
<svg xmlns="http://www.w3.org/2000/svg" xmlns:xlink="http://www.w3.org/1999/xlink" version="1.1" id="Capa_1" x="0px" y="0px" width="512px" height="512px" viewBox="0 0 32 32" style="enable-background:new 0 0 32 32;" xml:space="preserve">
<g>
	<g>
		<path d="M12.497,21.032l-1.591-2.443l0.77-3.132l-1.513-2.114l1.265-4.083l-1.764,0.752C4.628,12.16-0.531,16.266,0.044,20.2    c0.576,3.936,6.695,6.389,12.135,7.006l1.822,0.207l-2.345-3.77L12.497,21.032z M10.509,25.158    c-4.24-0.815-8.348-2.739-8.71-5.215c-0.36-2.458,2.974-5.452,6.767-7.446l-0.36,1.163l1.552,2.165l-0.76,3.088l1.552,2.381    l-0.836,2.588L10.509,25.158z" fill="#91DC5A"/>
		<path d="M25.632,9.201c0.488,0,0.884-0.395,0.884-0.882c0-0.487-0.396-0.883-0.884-0.883c0,0,0,0-0.001,0    c0.039,0.069,0.064,0.144,0.064,0.228c0,0.271-0.219,0.49-0.489,0.49c-0.156,0-0.29-0.079-0.38-0.193    c-0.049,0.109-0.077,0.23-0.077,0.358C24.75,8.807,25.145,9.201,25.632,9.201z" fill="#91DC5A"/>
		<path d="M32,11.275c0,0-2.641-1.508-2.627-1.558C29.445,9.465,32,8.034,32,8.034l-2.876-0.292    c-0.832-2.592-3.258-4.468-6.125-4.468c-3.287,0-5.993,2.467-6.381,5.649l-0.002,0.002c-0.014,0.023-0.043,3.73-0.06,5.987    l-2.57-1.312l-0.33,0.97c-0.528,1.553-0.851,2.997-0.934,4.175c-0.359,5.131,3.522,9.598,8.655,9.957    c5.131,0.359,9.598-3.522,9.958-8.654c0.082-1.178-0.038-2.651-0.344-4.265l-0.206-1.087l-1.975,0.851    c0.396-1.231,0.535-2.582,0.545-3.973C29.389,11.478,32,11.275,32,11.275z M25.512,6.552c0.975,0,1.766,0.792,1.766,1.767    c0,0.976-0.791,1.766-1.766,1.766c-0.976,0-1.766-0.791-1.766-1.766S24.536,6.552,25.512,6.552z M29.564,19.925    c-0.291,4.154-3.91,7.299-8.064,7.008c-4.156-0.291-7.3-3.908-7.009-8.063c0.054-0.771,0.24-1.723,0.535-2.747l2.189,1.118    l2.371-1.039l2.568,1.375l2.785-1.018l2.729,1.413l1.759-0.758C29.568,18.235,29.616,19.175,29.564,19.925z" fill="#91DC5A"/>
	</g>
</g>
<g>
</g>
<g>
</g>
<g>
</g>
<g>
</g>
<g>
</g>
<g>
</g>
<g>
</g>
<g>
</g>
<g>
</g>
<g>
</g>
<g>
</g>
<g>
</g>
<g>
</g>
<g>
</g>
<g>
</g>
</svg>
