<?xml version="1.0" encoding="iso-8859-1"?>
<!-- Generator: Adobe Illustrator 16.0.0, SVG Export Plug-In . SVG Version: 6.00 Build 0)  -->
<!DOCTYPE svg PUBLIC "-//W3C//DTD SVG 1.1//EN" "http://www.w3.org/Graphics/SVG/1.1/DTD/svg11.dtd">
<svg xmlns="http://www.w3.org/2000/svg" xmlns:xlink="http://www.w3.org/1999/xlink" version="1.1" id="Capa_1" x="0px" y="0px" width="512px" height="512px" viewBox="0 0 29.672 29.672" style="enable-background:new 0 0 29.672 29.672;" xml:space="preserve">
<g>
	<g>
		<path d="M11.717,23.593c2.705-0.015,5.565-0.674,7.789-2.369c0.903,0.431,1.911,0.686,2.982,0.686    c1.037,0,2.018-0.232,2.898-0.639l1.362,1.49l0.489-2.738c1.294-1.223,2.103-2.938,2.103-4.84c0-3.716-3.067-6.728-6.854-6.728    c-1.481,0-2.865,0.388-3.996,1.117c-5.128,1.422-12.938,2.141-14.581-8.285C2.308,3.682,0,8.11,0,11.209    c0,7.029,2.074,10.823,8.011,12.034l-2.01,2.29l-1.923,0.233l0.059,0.476l1.862-0.228l0.657,1.008l0.4-0.26l-0.639-0.979    l2.135-2.431c0.828,0.139,1.716,0.211,2.652,0.229l0.223,2.89l-1.686,0.271l0.076,0.473l1.912-0.309l1.493,1.055l0.275-0.391    l-1.524-1.078L11.717,23.593z M25.695,14.446c0.846,0,1.531,0.673,1.531,1.503c0,0.831-0.687,1.503-1.531,1.503    c-0.846,0-1.531-0.673-1.531-1.503S24.852,14.446,25.695,14.446z M5.521,14.866c0,0,7.373-2.773,9.383-1.902    c2.013,0.872,2.936,3.208,2.064,5.221c-0.87,2.01-3.208,2.935-5.22,2.063C9.737,19.375,5.521,14.866,5.521,14.866z" fill="#a3a3a3"/>
		<ellipse cx="23.332" cy="27.025" rx="0.844" ry="0.349" fill="#a3a3a3"/>
		<ellipse cx="26.75" cy="28.036" rx="0.846" ry="0.35" fill="#a3a3a3"/>
		<ellipse cx="28.992" cy="26.566" rx="0.68" ry="0.281" fill="#a3a3a3"/>
		<ellipse cx="25.801" cy="26.578" rx="0.647" ry="0.269" fill="#a3a3a3"/>
		<ellipse cx="27.555" cy="25.971" rx="0.377" ry="0.155" fill="#a3a3a3"/>
		<path d="M25.693,16.62c0.445,0,0.808-0.359,0.808-0.807c0-0.137-0.044-0.26-0.104-0.373c-0.1,0.111-0.239,0.184-0.4,0.184    c-0.301,0-0.542-0.243-0.542-0.542c0-0.009,0.004-0.018,0.005-0.027c-0.328,0.103-0.568,0.397-0.568,0.758    C24.889,16.261,25.248,16.62,25.693,16.62z" fill="#a3a3a3"/>
	</g>
</g>
<g>
</g>
<g>
</g>
<g>
</g>
<g>
</g>
<g>
</g>
<g>
</g>
<g>
</g>
<g>
</g>
<g>
</g>
<g>
</g>
<g>
</g>
<g>
</g>
<g>
</g>
<g>
</g>
<g>
</g>
</svg>
